<svg width="30" height="30" viewBox="0 0 30 30" fill="none" xmlns="http://www.w3.org/2000/svg">
<path d="M27.5 0H2.5C1.83696 0 1.20107 0.263392 0.732233 0.732233C0.263392 1.20107 0 1.83696 0 2.5V27.5C0 28.163 0.263392 28.7989 0.732233 29.2678C1.20107 29.7366 1.83696 30 2.5 30H27.5C28.163 30 28.7989 29.7366 29.2678 29.2678C29.7366 28.7989 30 28.163 30 27.5V2.5C30 1.83696 29.7366 1.20107 29.2678 0.732233C28.7989 0.263392 28.163 0 27.5 0ZM15 5C15.3708 5 15.7334 5.10997 16.0417 5.31599C16.35 5.52202 16.5904 5.81486 16.7323 6.15747C16.8742 6.50008 16.9113 6.87708 16.839 7.2408C16.7666 7.60451 16.588 7.9386 16.3258 8.20083C16.0636 8.46305 15.7295 8.64163 15.3658 8.71397C15.0021 8.78632 14.6251 8.74919 14.2825 8.60727C13.9399 8.46536 13.647 8.22504 13.441 7.91669C13.235 7.60835 13.125 7.24584 13.125 6.875C13.125 6.37772 13.3225 5.90081 13.6742 5.54917C14.0258 5.19754 14.5027 5 15 5ZM20 25.1562H10V22.3438H13.5938V15.1562H11.25V12.3438H16.4062V22.3438H20V25.1562Z" fill="white"/>
</svg>
