<svg width="44" height="24" viewBox="0 0 44 24" fill="none" xmlns="http://www.w3.org/2000/svg">
<g clip-path="url(#clip0_10_15)">
<path d="M19.4782 7.40482C21.4711 5.30242 23.5649 3.28642 25.7547 1.36482C25.7923 1.33282 25.7615 1.27362 25.7102 1.28162C20.6236 2.08642 15.6706 3.25762 10.8854 4.76802C10.3872 4.92482 9.93351 5.18402 9.55514 5.52482C7.36199 7.50242 5.26813 9.57442 3.28043 11.736C3.24619 11.7728 3.28727 11.8288 3.33692 11.8128C8.28478 10.104 13.4227 8.76002 18.7112 7.81442C19.0074 7.76162 19.2779 7.61762 19.4782 7.40642V7.40482Z" fill="#F5F5F5"/>
<path d="M34.154 8.8816C29.8773 8.8912 25.6639 9.1584 21.5327 9.6672C21.1852 9.7104 20.8684 9.87521 20.6476 10.1296C16.9256 14.4192 13.611 19.032 10.7621 23.9152C10.7416 23.9504 10.7724 23.992 10.8152 23.9856C14.5818 23.4624 18.4202 23.1408 22.3151 23.032C22.7791 23.0192 23.2037 22.7888 23.4468 22.4176C26.5867 17.6224 30.1889 13.1184 34.1951 8.96C34.2242 8.9296 34.202 8.88 34.1575 8.88L34.154 8.8816Z" fill="#F5F5F5"/>
<path d="M43.9676 0.0192C43.2913 0.0064 42.6151 0 41.9354 0C38.0918 0 34.2996 0.208 30.5724 0.6112C30.2814 0.6432 30.0074 0.7616 29.7917 0.9488C27.6054 2.8624 25.5133 4.8688 23.5239 6.9616C23.4913 6.9952 23.5222 7.0464 23.5684 7.0416C27.7698 6.5024 32.0551 6.2112 36.4088 6.1888C36.7718 6.1872 37.1194 6.0512 37.3762 5.808C39.4871 3.8128 41.6974 1.9104 43.9984 0.104C44.0344 0.0752 44.0138 0.0208 43.9659 0.0192H43.9676Z" fill="#F5F5F5"/>
</g>
<defs>
<clipPath id="clip0_10_15">
<rect width="44" height="24" fill="white"/>
</clipPath>
</defs>
</svg>
