<svg width="20" height="20" viewBox="0 0 20 20" fill="none" xmlns="http://www.w3.org/2000/svg">
<circle cx="10" cy="10" r="9.52381" fill="white"/>
<path d="M1.66669 9.16666H5.83335V10.8333H1.66669V9.16666ZM14.1667 9.16666H18.3334V10.8333H14.1667V9.16666ZM9.16669 14.1667H10.8334V18.3333H9.16669V14.1667ZM9.16669 1.66666H10.8334V5.83332H9.16669V1.66666ZM3.51835 4.69666L4.69669 3.51832L7.64335 6.46499L6.46502 7.64332L3.51835 4.69666ZM16.4817 15.3033L15.3034 16.4817L12.3567 13.535L13.535 12.3567L16.4817 15.3033ZM6.46502 12.3567L7.64335 13.535L4.69669 16.4817L3.51835 15.3033L6.46502 12.3567ZM12.3567 6.46416L15.3034 3.51832L16.4817 4.69749L13.535 7.64332L12.3567 6.46416Z" fill="#212121"/>
</svg>
